<svg width="43" height="44" viewBox="0 0 43 44" fill="none" xmlns="http://www.w3.org/2000/svg">
<rect x="42.5" y="43" width="42" height="42" rx="21" transform="rotate(-180 42.5 43)" fill="#2D2D2D"/>
<rect x="42.5" y="43" width="42" height="42" rx="21" transform="rotate(-180 42.5 43)" stroke="#2D2D2D"/>
<path d="M33.5938 23.3438L6.71875 23.3437C6.36237 23.3437 6.02058 23.2022 5.76857 22.9502C5.51657 22.6982 5.375 22.3564 5.375 22C5.375 21.6436 5.51657 21.3018 5.76857 21.0498C6.02058 20.7978 6.36237 20.6562 6.71875 20.6562L33.5938 20.6562C33.9501 20.6562 34.2919 20.7978 34.5439 21.0498C34.7959 21.3018 34.9375 21.6436 34.9375 22C34.9375 22.3564 34.7959 22.6982 34.5439 22.9502C34.2919 23.2022 33.9501 23.3438 33.5938 23.3438Z" fill="#707070"/>
<path d="M33.0374 22L21.8924 10.8576C21.64 10.6053 21.4983 10.2631 21.4983 9.90626C21.4983 9.54943 21.64 9.2072 21.8924 8.95489C22.1447 8.70256 22.4869 8.56081 22.8437 8.56081C23.2006 8.56081 23.5428 8.70256 23.7951 8.95489L35.8889 21.0486C36.014 21.1735 36.1133 21.3217 36.181 21.485C36.2488 21.6482 36.2836 21.8233 36.2836 22C36.2836 22.1768 36.2488 22.3518 36.181 22.515C36.1133 22.6783 36.014 22.8266 35.8889 22.9514L23.7951 35.0451C23.5428 35.2975 23.2006 35.4392 22.8437 35.4392C22.4869 35.4392 22.1447 35.2975 21.8924 35.0451C21.64 34.7928 21.4983 34.4506 21.4983 34.0938C21.4983 33.7369 21.64 33.3947 21.8924 33.1424L33.0374 22Z" fill="#707070"/>
</svg>
