<svg width="16" height="21" viewBox="0 0 16 21" fill="none" xmlns="http://www.w3.org/2000/svg">
<path d="M2.46154 9.66625L15.0437 1.1475C15.1364 1.08487 15.244 1.04894 15.3552 1.04354C15.4664 1.03813 15.5769 1.06346 15.6751 1.11682C15.7732 1.17019 15.8553 1.24958 15.9125 1.34655C15.9697 1.44353 15.9999 1.55445 16 1.6675V19.3325C15.9999 19.4456 15.9697 19.5565 15.9125 19.6534C15.8553 19.7504 15.7732 19.8298 15.6751 19.8832C15.5769 19.9365 15.4664 19.9619 15.3552 19.9565C15.244 19.9511 15.1364 19.9151 15.0437 19.8525L2.46154 11.3337V19.25C2.46154 19.5815 2.33187 19.8995 2.10105 20.1339C1.87024 20.3683 1.55719 20.5 1.23077 20.5C0.904349 20.5 0.591298 20.3683 0.360484 20.1339C0.12967 19.8995 0 19.5815 0 19.25V1.75C0 1.41848 0.12967 1.10054 0.360484 0.866117C0.591298 0.631696 0.904349 0.5 1.23077 0.5C1.55719 0.5 1.87024 0.631696 2.10105 0.866117C2.33187 1.10054 2.46154 1.41848 2.46154 1.75V9.66625Z" fill="#707070"/>
</svg>
