<svg width="16" height="21" viewBox="0 0 16 21" fill="none" xmlns="http://www.w3.org/2000/svg">
<path d="M13.5385 11.3337L0.956307 19.8525C0.863637 19.9151 0.755975 19.9511 0.644789 19.9565C0.533603 19.9619 0.423057 19.9365 0.324923 19.8832C0.226789 19.8298 0.144742 19.7504 0.0875235 19.6534C0.0303049 19.5565 5.72205e-05 19.4456 0 19.3325L0 1.6675C5.72205e-05 1.55445 0.0303049 1.44353 0.0875235 1.34655C0.144742 1.24958 0.226789 1.17019 0.324923 1.11683C0.423057 1.06346 0.533603 1.03814 0.644789 1.04354C0.755975 1.04894 0.863637 1.08487 0.956307 1.1475L13.5385 9.66625V1.75C13.5385 1.41848 13.6681 1.10054 13.8989 0.866116C14.1298 0.631695 14.4428 0.5 14.7692 0.5C15.0957 0.5 15.4087 0.631695 15.6395 0.866116C15.8703 1.10054 16 1.41848 16 1.75L16 19.25C16 19.5815 15.8703 19.8995 15.6395 20.1339C15.4087 20.3683 15.0957 20.5 14.7692 20.5C14.4428 20.5 14.1298 20.3683 13.8989 20.1339C13.6681 19.8995 13.5385 19.5815 13.5385 19.25L13.5385 11.3337Z" fill="#707070"/>
</svg>
