<svg width="31" height="34" viewBox="0 0 31 34" fill="none" xmlns="http://www.w3.org/2000/svg">
<path d="M25.1667 11.2413C25.1667 8.52576 24.1484 5.92063 22.3359 4.00038C20.5218 2.08014 18.0617 1 15.5 1C12.9367 1 10.4782 2.07854 8.66406 4.00038C6.85156 5.92063 5.83333 8.52576 5.83333 11.2413C5.83333 23.19 1 26.6033 1 26.6033H30C30 26.6033 25.1667 23.19 25.1667 11.2413ZM18.2872 31.4039C18.0043 31.8893 17.5979 32.2922 17.1087 32.5724C16.6195 32.8525 16.0647 33 15.5 33C14.9353 33 14.3805 32.8525 13.8913 32.5724C13.4021 32.2922 12.9957 31.8893 12.7128 31.4039" fill="#329CD7"/>
<path d="M18.2872 31.4039C18.0043 31.8893 17.5979 32.2922 17.1087 32.5724C16.6195 32.8525 16.0647 33 15.5 33C14.9353 33 14.3805 32.8525 13.8913 32.5724C13.4021 32.2922 12.9957 31.8893 12.7128 31.4039M25.1667 11.2413C25.1667 8.52576 24.1484 5.92063 22.3359 4.00038C20.5218 2.08014 18.0617 1 15.5 1C12.9367 1 10.4782 2.07854 8.66406 4.00038C6.85156 5.92063 5.83333 8.52576 5.83333 11.2413C5.83333 23.19 1 26.6033 1 26.6033H30C30 26.6033 25.1667 23.19 25.1667 11.2413Z" stroke="#329CD7" stroke-width="1.5" stroke-linecap="round" stroke-linejoin="round"/>
</svg>
