<svg width="37" height="38" viewBox="0 0 37 38" fill="none" xmlns="http://www.w3.org/2000/svg">
<path d="M29.1796 6.79779C29.17 6.78817 29.1589 6.78225 29.1493 6.773L29.1522 6.77003L28.4404 6.05853L28.4322 6.06667C28.2432 5.91535 28.0056 5.83796 27.7637 5.84892C27.5218 5.85988 27.2922 5.95845 27.1176 6.12624L27.1161 6.12475L25.8511 7.38942L25.8596 7.39792C25.7206 7.57443 25.6453 7.79273 25.646 8.01739C25.6467 8.24206 25.7233 8.45991 25.8633 8.63558L25.8552 8.64372L25.9351 8.72363L26.5667 9.35559L26.5781 9.34412C26.5874 9.35374 26.5937 9.36521 26.6029 9.37484C31.9154 14.6873 31.9313 23.3194 26.654 28.6533L26.647 28.6463L26.0154 29.2779L25.9355 29.3578L25.9436 29.3659C25.7924 29.555 25.715 29.7925 25.7259 30.0344C25.7368 30.2762 25.8352 30.5059 26.0028 30.6805L26.0013 30.682L27.2667 31.9474L27.2752 31.9389C27.4518 32.0779 27.6701 32.1531 27.8948 32.1523C28.1194 32.1516 28.3372 32.075 28.5129 31.9348L28.521 31.943L28.6009 31.8631L29.2325 31.2315L29.231 31.23C35.9288 24.4749 35.9125 13.531 29.1796 6.79779Z" fill="#707070"/>
<path d="M25.6691 11.6733C25.6595 11.6637 25.6484 11.6577 25.6387 11.6485L25.6417 11.6455L24.9294 10.934L24.9213 10.9422C24.7322 10.791 24.4946 10.7137 24.2527 10.7246C24.0108 10.7355 23.7811 10.8338 23.6063 11.0014L23.6048 10.9999L23.5919 11.0128L23.5908 11.0136L23.59 11.0147L22.4249 12.1794L22.4238 12.1802L22.4231 12.1813L22.3398 12.2645L22.3483 12.273C22.2093 12.4495 22.1341 12.6678 22.1348 12.8924C22.1356 13.117 22.2123 13.3348 22.3524 13.5103L22.3443 13.5185L23.0558 14.2303L23.0672 14.2189C23.0765 14.2285 23.0828 14.24 23.092 14.2496C25.7157 16.8733 25.7309 21.1294 23.142 23.7756L23.1368 23.7704L22.5052 24.402H22.5045L22.4249 24.4816L22.4331 24.4897C22.2817 24.6788 22.2043 24.9164 22.2152 25.1583C22.2261 25.4003 22.3246 25.63 22.4923 25.8047L22.4908 25.8062L23.7562 27.0716L23.7647 27.0631C23.9411 27.202 24.1594 27.2773 24.384 27.2765C24.6087 27.2758 24.8264 27.1991 25.002 27.059L25.0101 27.0671L25.7216 26.3556L25.7201 26.3541C29.7302 22.2878 29.7139 15.7185 25.6691 11.6733ZM19.5178 9.30713C19.3836 9.30772 19.2519 9.34412 19.1364 9.41258L19.1297 9.40074L11.558 13.7723V13.7767L8.69421 15.4303H3.33587V15.4451C3.33143 15.4451 3.32699 15.4436 3.32218 15.4436C3.01064 15.4436 2.75793 15.6967 2.75793 16.0078V23.652C2.75793 23.9636 3.01064 24.2159 3.32218 24.2159C3.32699 24.2159 3.33106 24.2148 3.33587 24.2144V24.2296H8.69421L12.9581 26.6912V26.6797L19.0809 30.2151C19.1957 30.2948 19.3302 30.3416 19.4697 30.3504C19.6093 30.3592 19.7486 30.3296 19.8725 30.2649C19.9964 30.2002 20.1003 30.1028 20.1729 29.9833C20.2454 29.8637 20.2839 29.7266 20.2841 29.5868C20.2841 29.5569 20.2785 29.5295 20.2752 29.5006H20.2841V9.98682H20.2752C20.2546 9.80025 20.1659 9.62781 20.0262 9.50244C19.8865 9.37706 19.7055 9.30754 19.5178 9.30713Z" fill="#707070"/>
</svg>
