<svg width="34" height="38" viewBox="0 0 34 38" fill="none" xmlns="http://www.w3.org/2000/svg">
<path d="M26.6158 0.5C24.7281 0.5 22.8291 1.26901 21.4725 2.57838C21.9434 6.35308 23.2222 8.7627 25.062 10.2914C26.8876 11.8084 29.3348 12.4904 32.2616 12.6103C33.3637 11.2956 34 9.57638 34 7.86533C34 5.9455 33.2001 4.01512 31.8386 2.65765C30.4771 1.3001 28.5411 0.5 26.6158 0.5ZM20.3572 3.96661C19.6345 5.1319 19.229 6.50156 19.229 7.86533C19.229 9.78516 20.0316 11.7155 21.393 13.073C22.7546 14.4306 24.6904 15.2307 26.6159 15.2307C28.1484 15.2307 29.6877 14.7239 30.9387 13.8324C28.3501 13.5706 26.0466 12.813 24.2211 11.2963C22.3113 9.7094 20.976 7.31704 20.3572 3.96669L20.3572 3.96661ZM18.0779 9.50676L12.7884 16.3608C13.0261 17.9643 13.6464 19.2323 14.6011 20.1393C15.5604 21.0509 16.8749 21.6216 18.5881 21.7449L25.0953 16.4044C23.356 16.0914 21.7199 15.2501 20.4649 13.9986C19.2402 12.7774 18.409 11.1937 18.0777 9.50668L18.0779 9.50676ZM19.3188 14.5711C19.3196 14.5711 19.3204 14.5711 19.3212 14.5711C19.3358 14.5706 19.3504 14.5706 19.365 14.5711C19.4917 14.5719 19.6155 14.6093 19.7214 14.6787C19.8273 14.7481 19.9108 14.8467 19.9617 14.9624C20.0127 15.0781 20.029 15.206 20.0086 15.3307C19.9883 15.4554 19.9321 15.5716 19.847 15.6652L17.0317 18.8378C16.975 18.9036 16.9058 18.9575 16.8281 18.9963C16.7503 19.0352 16.6656 19.0583 16.5789 19.0642C16.4921 19.0702 16.405 19.0589 16.3227 19.031C16.2403 19.0032 16.1643 18.9593 16.0991 18.9019C16.0339 18.8445 15.9808 18.7748 15.9429 18.6967C15.9049 18.6187 15.8829 18.534 15.8781 18.4474C15.8732 18.3608 15.8857 18.2741 15.9147 18.1924C15.9437 18.1106 15.9888 18.0355 16.0472 17.9712L18.8624 14.7986C18.9194 14.7323 18.9892 14.678 19.0675 14.6389C19.1459 14.5998 19.2313 14.5767 19.3188 14.5711ZM11.7372 17.7234L3.15563 28.8418C3.44173 29.9321 3.75671 30.5553 4.18121 30.9713C4.59391 31.3761 5.19744 31.6635 6.11447 31.9864L17.2163 22.8697C15.8161 22.5744 14.6241 21.9696 13.6961 21.0879C12.7652 20.2036 12.1108 19.0568 11.7372 17.7234ZM2.57885 31.0073C1.83058 31.4476 1.1537 32.1591 0.681441 33.0039C-0.110799 34.4206 -0.263733 36.0502 0.496837 37.1329C1.04368 37.4877 1.36374 37.5264 1.63269 37.4882C1.77988 37.4673 1.92953 37.4102 2.09412 37.3348C1.83321 36.5515 1.57722 35.6226 1.889 34.6094C2.1376 33.802 2.73597 33.0514 3.81463 32.3597C3.61691 32.2246 3.43159 32.0723 3.26082 31.9046C2.99687 31.6459 2.77346 31.35 2.57877 31.0072L2.57885 31.0073Z" fill="#707070"/>
</svg>
