<svg width="43" height="44" viewBox="0 0 43 44" fill="none" xmlns="http://www.w3.org/2000/svg">
<rect x="0.5" y="1" width="42" height="42" rx="21" fill="#2D2D2D"/>
<rect x="0.5" y="1" width="42" height="42" rx="21" stroke="#2D2D2D"/>
<path d="M9.40625 20.6562H36.2812C36.6376 20.6562 36.9794 20.7978 37.2314 21.0498C37.4834 21.3018 37.625 21.6436 37.625 22C37.625 22.3564 37.4834 22.6982 37.2314 22.9502C36.9794 23.2022 36.6376 23.3438 36.2812 23.3438H9.40625C9.04987 23.3438 8.70808 23.2022 8.45608 22.9502C8.20407 22.6982 8.0625 22.3564 8.0625 22C8.0625 21.6436 8.20407 21.3018 8.45608 21.0498C8.70808 20.7978 9.04987 20.6562 9.40625 20.6562Z" fill="#707070"/>
<path d="M9.96255 22L21.1076 33.1424C21.3599 33.3947 21.5017 33.7369 21.5017 34.0937C21.5017 34.4506 21.3599 34.7928 21.1076 35.0451C20.8553 35.2974 20.5131 35.4392 20.1562 35.4392C19.7994 35.4392 19.4572 35.2974 19.2049 35.0451L7.11112 22.9514C6.98598 22.8265 6.88669 22.6783 6.81895 22.515C6.75121 22.3518 6.71634 22.1767 6.71634 22C6.71634 21.8232 6.75121 21.6482 6.81895 21.485C6.88669 21.3217 6.98598 21.1734 7.11112 21.0486L19.2049 8.95486C19.4572 8.70254 19.7994 8.56079 20.1562 8.56079C20.5131 8.56079 20.8553 8.70254 21.1076 8.95486C21.3599 9.20718 21.5017 9.5494 21.5017 9.90624C21.5017 10.2631 21.3599 10.6053 21.1076 10.8576L9.96255 22Z" fill="#707070"/>
</svg>
