<svg width="33" height="33" viewBox="0 0 33 33" fill="none" xmlns="http://www.w3.org/2000/svg">
<path d="M31.121 32.2698L18.8898 20.0401C17.9132 20.8721 16.7901 21.5159 15.5204 21.9716C14.2508 22.4273 12.9747 22.6552 11.6921 22.6552C8.56429 22.6552 5.917 21.5726 3.7502 19.4073C1.5834 17.2408 0.5 14.5945 0.5 11.4684C0.5 8.34226 1.5821 5.69464 3.74629 3.5255C5.91179 1.35506 8.55779 0.269836 11.6843 0.269836C14.8121 0.269836 17.4607 1.3531 19.6301 3.51964C21.7995 5.68617 22.8842 8.3338 22.8842 11.4625C22.8842 12.8192 22.6439 14.1323 22.1634 15.4017C21.6816 16.6712 21.0501 17.7571 20.2688 18.6593L32.5 30.8871L31.121 32.2698ZM11.6921 20.7002C14.2834 20.7002 16.4717 19.8084 18.2569 18.0246C20.0409 16.2409 20.9329 14.0528 20.9329 11.4606C20.9329 8.86957 20.0409 6.68221 18.2569 4.89846C16.473 3.11471 14.2853 2.22284 11.694 2.22284C9.10274 2.22284 6.91445 3.11471 5.12919 4.89846C3.34523 6.68221 2.45324 8.86957 2.45324 11.4606C2.45324 14.0515 3.34523 16.2389 5.12919 18.0227C6.91315 19.8064 9.10079 20.7002 11.6921 20.7002Z" fill="#707070"/>
</svg>
