<svg width="28" height="33" viewBox="0 0 28 33" fill="none" xmlns="http://www.w3.org/2000/svg">
<path d="M27.2941 16.5C27.2951 16.924 27.1898 17.3411 26.9885 17.7106C26.7872 18.0802 26.4967 18.3896 26.1453 18.6089L4.3672 32.3677C4.00003 32.5999 3.5795 32.7266 3.14903 32.7349C2.71856 32.7431 2.29377 32.6325 1.91853 32.4145C1.54685 32.1999 1.23724 31.8869 1.02153 31.5078C0.805814 31.1286 0.691783 30.697 0.691162 30.2572V2.74281C0.691783 2.30305 0.805814 1.8714 1.02153 1.49224C1.23724 1.11308 1.54685 0.800108 1.91853 0.585496C2.29377 0.367498 2.71856 0.256905 3.14903 0.265138C3.5795 0.27337 4.00003 0.40013 4.3672 0.632326L26.1453 14.3911C26.4967 14.6104 26.7872 14.9198 26.9885 15.2894C27.1898 15.6589 27.2951 16.076 27.2941 16.5Z" fill="#101010"/>
</svg>
