<svg width="37" height="38" viewBox="0 0 37 38" fill="none" xmlns="http://www.w3.org/2000/svg">
<path d="M0 6.66667C0 5.03116 0.6497 3.46265 1.80617 2.30617C2.96265 1.1497 4.53116 0.5 6.16667 0.5H30.8333C32.4688 0.5 34.0373 1.1497 35.1938 2.30617C36.3503 3.46265 37 5.03116 37 6.66667C37 8.30217 36.3503 9.87068 35.1938 11.0272C34.0373 12.1836 32.4688 12.8333 30.8333 12.8333H6.16667C4.53116 12.8333 2.96265 12.1836 1.80617 11.0272C0.6497 9.87068 0 8.30217 0 6.66667ZM0 22.8542C0 22.2409 0.243637 21.6527 0.677315 21.219C1.11099 20.7853 1.69919 20.5417 2.3125 20.5417H34.6875C35.3008 20.5417 35.889 20.7853 36.3227 21.219C36.7564 21.6527 37 22.2409 37 22.8542C37 23.4675 36.7564 24.0557 36.3227 24.4893C35.889 24.923 35.3008 25.1667 34.6875 25.1667H2.3125C1.69919 25.1667 1.11099 24.923 0.677315 24.4893C0.243637 24.0557 0 23.4675 0 22.8542ZM2.3125 32.875C1.69919 32.875 1.11099 33.1186 0.677315 33.5523C0.243637 33.986 0 34.5742 0 35.1875C0 35.8008 0.243637 36.389 0.677315 36.8227C1.11099 37.2564 1.69919 37.5 2.3125 37.5H34.6875C35.3008 37.5 35.889 37.2564 36.3227 36.8227C36.7564 36.389 37 35.8008 37 35.1875C37 34.5742 36.7564 33.986 36.3227 33.5523C35.889 33.1186 35.3008 32.875 34.6875 32.875H2.3125Z" fill="#707070"/>
</svg>
